# xmcd CD database file
#
# Track frame offsets:
#	215
#	22159
#	49187
#	72888
#	93242
#	112054
#	134088
#	157643
#	167352
#	190672
#	205381
#	227203
#
# Disc length: 3313 seconds
#
# Revision: 0
# Processed by: cddbd v1.5.2PL0 Copyright (c) Steve Scherf et al.
# Submitted via: CDex 1.51
#
DISCID=a10cef0c
DTITLE=Lifescapes - Corner Cafe: Relaxing Jazz
DYEAR=2007
DGENRE=Jazz
TTITLE0=Venti Or Grande?
TTITLE1=Bossa Mocha
TTITLE2=Windows
TTITLE3=Soho Stroll
TTITLE4=70 Degrees And Sunny
TTITLE5=Cafe Rio
TTITLE6=Kaleidoscope
TTITLE7=Watercolours
TTITLE8=Rainy Afternoon
TTITLE9=Cappuccino Swing
TTITLE10=Watching The World
TTITLE11=Days End
EXTD=YEAR: 2007
EXTT0=
EXTT1=
EXTT2=
EXTT3=
EXTT4=
EXTT5=
EXTT6=
EXTT7=
EXTT8=
EXTT9=
EXTT10=
EXTT11=
PLAYORDER=
